<svg width="17" height="18" viewBox="0 0 17 18" fill="none" xmlns="http://www.w3.org/2000/svg">
<path d="M8.49992 4C8.78325 4 9.02092 3.904 9.21292 3.712C9.40492 3.52 9.50059 3.28267 9.49992 3C9.49925 2.71733 9.40325 2.48 9.21192 2.288C9.02059 2.096 8.78325 2 8.49992 2C8.21659 2 7.97925 2.096 7.78792 2.288C7.59659 2.48 7.50059 2.71733 7.49992 3C7.49925 3.28267 7.59525 3.52033 7.78792 3.713C7.98059 3.90567 8.21792 4.00133 8.49992 4ZM11.3249 4H13.0749C13.5749 4 14.0083 4.16667 14.3749 4.5C14.7416 4.83333 14.9666 5.24167 15.0499 5.725L16.4749 15.725C16.5583 16.325 16.4043 16.8543 16.0129 17.313C15.6216 17.7717 15.1173 18.0007 14.4999 18H2.49992C1.88325 18 1.37892 17.771 0.986921 17.313C0.594921 16.855 0.440921 16.3257 0.524921 15.725L1.94992 5.725C2.03325 5.24167 2.25825 4.83333 2.62492 4.5C2.99159 4.16667 3.42492 4 3.92492 4H5.67492C5.62492 3.83333 5.58325 3.671 5.54992 3.513C5.51659 3.355 5.49992 3.184 5.49992 3C5.49992 2.16667 5.79159 1.45833 6.37492 0.875C6.95825 0.291667 7.66659 0 8.49992 0C9.33325 0 10.0416 0.291667 10.6249 0.875C11.2083 1.45833 11.4999 2.16667 11.4999 3C11.4999 3.18333 11.4833 3.35433 11.4499 3.513C11.4166 3.67167 11.3749 3.834 11.3249 4Z" fill="#21262C"/>
</svg>
